<svg id="Layer_1" enable-background="new 0 0 256 256" height="512" viewBox="0 0 256 256" width="512" xmlns="http://www.w3.org/2000/svg"><g><g fill="#ebe7f2"><path d="m111.436 113.936h-33.129c-1.381 0-2.5-1.119-2.5-2.5v-33.128c0-1.381 1.119-2.5 2.5-2.5h33.128c1.381 0 2.5 1.119 2.5 2.5v33.128c.001 1.38-1.119 2.5-2.499 2.5zm-30.629-5h28.128v-28.128h-28.128z"/><path d="m144.564 113.936h-33.129c-1.381 0-2.5-1.119-2.5-2.5v-33.128c0-1.381 1.119-2.5 2.5-2.5h33.129c1.381 0 2.5 1.119 2.5 2.5v33.128c0 1.38-1.119 2.5-2.5 2.5zm-30.628-5h28.129v-28.128h-28.129z"/><path d="m177.693 113.936h-33.128c-1.381 0-2.5-1.119-2.5-2.5v-33.128c0-1.381 1.119-2.5 2.5-2.5h33.128c1.381 0 2.5 1.119 2.5 2.5v33.128c0 1.38-1.119 2.5-2.5 2.5zm-30.629-5h28.128v-28.128h-28.128z"/><path d="m111.436 180.192h-33.129c-1.381 0-2.5-1.119-2.5-2.5v-33.128c0-1.381 1.119-2.5 2.5-2.5h33.128c1.381 0 2.5 1.119 2.5 2.5v33.128c.001 1.381-1.119 2.5-2.499 2.5zm-30.629-5h28.128v-28.128h-28.128z"/><path d="m144.564 180.192h-33.129c-1.381 0-2.5-1.119-2.5-2.5v-33.128c0-1.381 1.119-2.5 2.5-2.5h33.129c1.381 0 2.5 1.119 2.5 2.5v33.128c0 1.381-1.119 2.5-2.5 2.5zm-30.628-5h28.129v-28.128h-28.129z"/><path d="m177.693 180.192h-33.128c-1.381 0-2.5-1.119-2.5-2.5v-33.128c0-1.381 1.119-2.5 2.5-2.5h33.128c1.381 0 2.5 1.119 2.5 2.5v33.128c0 1.381-1.119 2.5-2.5 2.5zm-30.629-5h28.128v-28.128h-28.128z"/><path d="m210.821 180.192h-33.128c-1.381 0-2.5-1.119-2.5-2.5v-33.128c0-1.381 1.119-2.5 2.5-2.5h33.128c1.381 0 2.5 1.119 2.5 2.5v33.128c0 1.381-1.119 2.5-2.5 2.5zm-30.628-5h28.128v-28.128h-28.128z"/><path d="m111.436 213.321h-33.129c-1.381 0-2.5-1.119-2.5-2.5v-33.129c0-1.381 1.119-2.5 2.5-2.5h33.128c1.381 0 2.5 1.119 2.5 2.5v33.129c.001 1.381-1.119 2.5-2.499 2.5zm-30.629-5h28.128v-28.129h-28.128z"/><path d="m144.564 213.321h-33.129c-1.381 0-2.5-1.119-2.5-2.5v-33.129c0-1.381 1.119-2.5 2.5-2.5h33.129c1.381 0 2.5 1.119 2.5 2.5v33.129c0 1.381-1.119 2.5-2.5 2.5zm-30.628-5h28.129v-28.129h-28.129z"/><path d="m177.693 213.321h-33.128c-1.381 0-2.5-1.119-2.5-2.5v-33.129c0-1.381 1.119-2.5 2.5-2.5h33.128c1.381 0 2.5 1.119 2.5 2.5v33.129c0 1.381-1.119 2.5-2.5 2.5zm-30.629-5h28.128v-28.129h-28.128z"/></g><path d="m210.821 213.321h-33.128c-1.381 0-2.5-1.119-2.5-2.5v-33.129c0-1.381 1.119-2.5 2.5-2.5h33.128c1.381 0 2.5 1.119 2.5 2.5v33.129c0 1.381-1.119 2.5-2.5 2.5zm-30.628-5h28.128v-28.129h-28.128z" fill="#a58bc9"/><path d="m210.821 42.679h-165.642c-1.381 0-2.5 1.119-2.5 2.5v165.643c0 1.381 1.119 2.5 2.5 2.5h33.128c1.381 0 2.5-1.119 2.5-2.5v-63.757h130.014c1.381 0 2.5-1.119 2.5-2.5v-99.386c0-1.381-1.119-2.5-2.5-2.5zm-130.014 66.257v-28.128h94.386v28.128zm-5 66.256h-28.128v-28.128h28.128zm0-66.256h-28.128v-28.128h28.128zm-28.128 33.128v-28.129h28.128v28.129zm132.514-61.256h28.128v28.128h-28.128zm28.128-5h-28.128v-28.129h28.128zm-33.128 0h-28.128v-28.129h28.128zm-33.129 0h-28.129v-28.129h28.129zm-33.128 0h-28.129v-28.129h28.128v28.129zm-61.257-28.129h28.128v28.129h-28.128zm28.128 160.642h-28.128v-28.129h28.128zm5-94.385h28.128v28.129h-28.128zm33.129 0h28.129v28.129h-28.129zm33.128 0h28.128v28.129h-28.128zm61.257 28.128h-28.128v-28.129h28.128z" fill="#846f75"/></g></svg>