<svg id="Layer_1" enable-background="new 0 0 256 256" height="512" viewBox="0 0 256 256" width="512" xmlns="http://www.w3.org/2000/svg"><g><g><path d="m35.784 22.61h26.347v26.347h-26.347z" fill="#a4a4a5"/><path d="m62.131 22.61h26.347v26.347h-26.347z" fill="#87828e"/><path d="m88.479 22.61h26.347v26.347h-26.347z" fill="#796e84"/><path d="m114.826 22.61h26.347v26.347h-26.347z" fill="#87828e"/><path d="m141.174 22.61h26.347v26.347h-26.347z" fill="#796e84"/><path d="m167.521 22.61h26.347v26.347h-26.347z" fill="#87828e"/><path d="m193.869 22.61h26.347v26.347h-26.347z" fill="#a4a4a5"/><path d="m35.784 48.958h26.347v26.347h-26.347z" fill="#796e84"/><path d="m62.131 48.958h26.347v26.347h-26.347z" fill="#f973a3"/><path d="m88.479 48.958h26.347v26.347h-26.347z" fill="#ff4a73"/><path d="m114.826 48.958h26.347v26.347h-26.347z" fill="#796e84"/><path d="m141.174 48.958h26.347v26.347h-26.347z" fill="#ff4a73"/><path d="m167.521 48.958h26.347v26.347h-26.347z" fill="#f973a3"/><path d="m193.869 48.958h26.347v26.347h-26.347z" fill="#796e84"/><path d="m35.784 75.305h26.347v26.347h-26.347z" fill="#ea2a6a"/><path d="m62.131 75.305h26.347v26.347h-26.347z" fill="#ff4a73"/><path d="m88.479 75.305h26.347v26.347h-26.347z" fill="#ea2a6a"/><path d="m114.826 75.305h26.347v26.347h-26.347z" fill="#ff4a73"/><path d="m141.174 75.305h26.347v26.347h-26.347z" fill="#ea2a6a"/><path d="m167.521 75.305h26.347v26.347h-26.347z" fill="#ff4a73"/><path d="m193.869 75.305h26.347v26.347h-26.347z" fill="#ea2a6a"/><path d="m35.784 101.653h26.347v26.347h-26.347z" fill="#f973a3"/><path d="m62.131 101.653h26.347v26.347h-26.347z" fill="#ea2a6a"/><path d="m88.479 101.653h26.347v26.347h-26.347z" fill="#ff4a73"/><path d="m114.826 101.653h26.347v26.347h-26.347z" fill="#f973a3"/><path d="m141.174 101.653h26.347v26.347h-26.347z" fill="#ff4a73"/><path d="m167.521 101.653h26.347v26.347h-26.347z" fill="#ea2a6a"/><path d="m193.869 101.653h26.347v26.347h-26.347z" fill="#f973a3"/><path d="m35.784 128h26.347v26.347h-26.347z" fill="#a4a4a5"/><path d="m62.131 128h26.347v26.347h-26.347z" fill="#ff4a73"/><path d="m88.479 128h26.347v26.347h-26.347z" fill="#ea2a6a"/><path d="m114.826 128h26.347v26.347h-26.347z" fill="#ff4a73"/><path d="m141.174 128h26.347v26.347h-26.347z" fill="#ea2a6a"/><path d="m167.521 128h26.347v26.347h-26.347z" fill="#ff4a73"/><path d="m193.869 128h26.347v26.347h-26.347z" fill="#87828e"/><path d="m35.784 154.347h26.347v26.347h-26.347z" fill="#87828e"/><path d="m62.131 154.347h26.347v26.347h-26.347z" fill="#a4a4a5"/><path d="m88.479 154.347h26.347v26.347h-26.347z" fill="#f973a3"/><path d="m114.826 154.347h26.347v26.347h-26.347z" fill="#ea2a6a"/><path d="m141.174 154.347h26.347v26.347h-26.347z" fill="#ff4a73"/><path d="m167.521 154.347h26.347v26.347h-26.347z" fill="#87828e"/><path d="m193.869 154.347h26.347v26.347h-26.347z" fill="#796e84"/><path d="m35.784 180.695h26.347v26.347h-26.347z" fill="#a4a4a5"/><path d="m62.131 180.695h26.347v26.347h-26.347z" fill="#796e84"/><path d="m88.479 180.695h26.347v26.347h-26.347z" fill="#87828e"/><path d="m114.826 180.695h26.347v26.347h-26.347z" fill="#ff4a73"/><path d="m141.174 180.695h26.347v26.347h-26.347z" fill="#a4a4a5"/><path d="m167.521 180.695h26.347v26.347h-26.347z" fill="#796e84"/><path d="m193.869 180.695h26.347v26.347h-26.347z" fill="#a4a4a5"/><path d="m35.784 207.042h26.347v26.347h-26.347z" fill="#796e84"/><path d="m9.437 22.61h26.347v26.347h-26.347z" fill="#796e84"/><path d="m9.437 48.958h26.347v26.347h-26.347z" fill="#a4a4a5"/><path d="m9.437 75.305h26.347v26.347h-26.347z" fill="#796e84"/><path d="m9.437 101.653h26.347v26.347h-26.347z" fill="#a4a4a5"/><path d="m9.437 128h26.347v26.347h-26.347z" fill="#796e84"/><path d="m9.437 154.347h26.347v26.347h-26.347z" fill="#a4a4a5"/><path d="m9.437 180.695h26.347v26.347h-26.347z" fill="#796e84"/><path d="m9.437 207.042h26.347v26.347h-26.347z" fill="#a4a4a5"/><path d="m220.216 22.61h26.347v26.347h-26.347z" fill="#796e84"/><path d="m220.216 48.958h26.347v26.347h-26.347z" fill="#a4a4a5"/><path d="m220.216 75.305h26.347v26.347h-26.347z" fill="#796e84"/><path d="m220.216 101.653h26.347v26.347h-26.347z" fill="#a4a4a5"/><path d="m220.216 128h26.347v26.347h-26.347z" fill="#796e84"/><path d="m220.216 154.347h26.347v26.347h-26.347z" fill="#a4a4a5"/><path d="m220.216 180.695h26.347v26.347h-26.347z" fill="#796e84"/><path d="m220.216 207.042h26.347v26.347h-26.347z" fill="#a4a4a5"/><path d="m62.131 207.042h26.347v26.347h-26.347z" fill="#87828e"/><path d="m88.479 207.042h26.347v26.347h-26.347z" fill="#a4a4a5"/><path d="m114.826 207.042h26.347v26.347h-26.347z" fill="#796e84"/><path d="m141.174 207.042h26.347v26.347h-26.347z" fill="#87828e"/><path d="m167.521 207.042h26.347v26.347h-26.347z" fill="#a4a4a5"/><path d="m193.869 207.042h26.347v26.347h-26.347z" fill="#87828e"/></g><path d="m246.563 18.61c-61.859 0-195.067 0-237.127 0-2.209 0-4 1.791-4 4v210.779c0 2.209 1.791 4 4 4h237.127c2.209 0 4-1.791 4-4 0-74.514 0-136.268 0-210.779 0-2.209-1.791-4-4-4zm-214.779 210.78h-18.347v-18.348h18.348v18.348zm0-26.348h-18.347v-18.347h18.348v18.347zm0-26.347h-18.347v-18.348h18.348v18.348zm0-26.347h-18.347v-18.348h18.348v18.348zm0-26.348h-18.347v-18.348h18.348v18.348zm0-26.348h-18.347v-18.347h18.348v18.347zm0-26.347h-18.347v-18.347h18.348v18.347zm0-26.347h-18.347v-18.348h18.348v18.348zm26.347 184.432h-18.347v-18.348h18.347zm0-26.348h-18.347v-18.347h18.347zm0-26.347h-18.347v-18.348h18.347zm0-26.347h-18.347v-18.348h18.347zm0-26.348h-18.347v-18.348h18.347zm0-26.348h-18.347v-18.347h18.347zm0-26.347h-18.347v-18.347h18.347zm0-26.347h-18.347v-18.348h18.347zm26.348 184.432h-18.348v-18.348h18.348zm0-26.348h-18.348v-18.347h18.348zm0-26.347h-18.348v-18.348h18.348zm0-26.347h-18.348v-18.348h18.348zm0-26.348h-18.348v-18.348h18.348zm0-26.348h-18.348v-18.347h18.348zm0-26.347h-18.348v-18.347h18.348zm0-26.347h-18.348v-18.348h18.348zm26.347 184.432h-18.347v-18.348h18.347zm0-26.348h-18.347v-18.347h18.347zm0-26.347h-18.347v-18.348h18.347zm0-26.347h-18.347v-18.348h18.347zm0-26.348h-18.347v-18.348h18.347zm0-26.348h-18.347v-18.347h18.347zm0-26.347h-18.347v-18.347h18.347zm0-26.347h-18.347v-18.348h18.347zm26.348 184.432h-18.348v-18.348h18.348zm0-26.348h-18.348v-18.347h18.348zm0-26.347h-18.348v-18.348h18.348zm0-26.347h-18.348v-18.348h18.348zm0-26.348h-18.348v-18.348h18.348zm0-26.348h-18.348v-18.347h18.348zm0-26.347h-18.348v-18.347h18.348zm0-26.347h-18.348v-18.348h18.348zm26.347 184.432h-18.347v-18.348h18.347zm0-26.348h-18.347v-18.347h18.347zm0-26.347h-18.347v-18.348h18.347zm0-26.347h-18.347v-18.348h18.347zm0-26.348h-18.347v-18.348h18.347zm0-26.348h-18.347v-18.347h18.347zm0-26.347h-18.347v-18.347h18.347zm0-26.347h-18.347v-18.348h18.347zm26.348 184.432h-18.348v-18.348h18.348zm0-26.348h-18.348v-18.347h18.348zm0-26.347h-18.348v-18.348h18.348zm0-26.347h-18.348v-18.348h18.348zm0-26.348h-18.348v-18.348h18.348zm0-26.348h-18.348v-18.347h18.348zm0-26.347h-18.348v-18.347h18.348zm0-26.347h-18.348v-18.348h18.348zm26.347 184.432h-18.347v-18.348h18.347zm0-26.348h-18.347v-18.347h18.347zm0-26.347h-18.347v-18.348h18.347zm0-26.347h-18.347v-18.348h18.347zm0-26.348h-18.347v-18.348h18.347zm0-26.348h-18.347v-18.347h18.347zm0-26.347h-18.347v-18.347h18.347zm0-26.347h-18.347v-18.348h18.347zm26.347 184.432h-18.348v-18.348h18.348zm0-26.348h-18.348v-18.347h18.348zm0-26.347h-18.348v-18.348h18.348zm0-26.347h-18.348v-18.348h18.348zm0-26.348h-18.348v-18.348h18.348zm0-26.348h-18.348v-18.347h18.348zm0-26.347h-18.348v-18.347h18.348zm0-26.347h-18.348v-18.348h18.348z" fill="#5f266d"/></g></svg>